<svg width="40" height="40" viewBox="0 0 40 40" fill="none" xmlns="http://www.w3.org/2000/svg">
<circle cx="20" cy="20" r="19.5" stroke="#4D4D4D"/>
<path fill-rule="evenodd" clip-rule="evenodd" d="M27.7212 11.13C27.9917 11.0149 28.2877 10.9752 28.5786 11.015C28.8694 11.0549 29.1443 11.1728 29.3748 11.3565C29.6052 11.5402 29.7827 11.783 29.8889 12.0596C29.995 12.3362 30.0259 12.6365 29.9782 12.9293L27.4957 28.1526C27.2549 29.621 25.6611 30.4631 24.329 29.7316C23.2147 29.1197 21.5597 28.1769 20.0711 27.1931C19.3267 26.7007 17.0467 25.1238 17.3269 24.0018C17.5677 23.0424 21.3988 19.4371 23.588 17.2937C24.4472 16.4515 24.0554 15.9658 23.0407 16.7404C20.5209 18.6636 16.4753 21.5883 15.1377 22.4116C13.9578 23.1375 13.3426 23.2615 12.607 23.1375C11.2651 22.9118 10.0205 22.5621 9.00471 22.1361C7.63209 21.5606 7.69886 19.6529 9.00362 19.0974L27.7212 11.13Z" fill="#4D4D4D"/>
</svg>
