<svg width="40" height="40" viewBox="0 0 40 40" fill="none" xmlns="http://www.w3.org/2000/svg">
<circle cx="20" cy="20" r="19.5" stroke="#4D4D4D"/>
<path d="M30.116 27.9989H27.7071C26.7962 27.9989 26.5217 27.2085 24.8887 25.4581C23.4615 23.9848 22.8588 23.8016 22.4978 23.8016C21.9985 23.8016 21.8623 23.9486 21.8623 24.6847V27.005C21.8623 27.6325 21.6723 28 20.1417 28C18.6568 27.8931 17.2169 27.4099 15.9405 26.5902C14.664 25.7704 13.5877 24.6375 12.8001 23.2848C10.93 20.7916 9.62882 17.8653 9 14.7388C9 14.3521 9.13723 14.0015 9.82547 14.0015H12.2322C12.8508 14.0015 13.0735 14.2967 13.3163 14.9785C14.4848 18.6624 16.4788 21.8669 17.2885 21.8669C17.5988 21.8669 17.7339 21.7199 17.7339 20.8911V17.0963C17.6315 15.3652 16.7733 15.2193 16.7733 14.5929C16.7842 14.4276 16.8548 14.2734 16.9701 14.163C17.0854 14.0526 17.2363 13.9947 17.3909 14.0015H21.1741C21.6913 14.0015 21.8623 14.2774 21.8623 14.94V20.0623C21.8623 20.6152 22.084 20.7984 22.2402 20.7984C22.5506 20.7984 22.7891 20.6152 23.3581 20.0069C24.5777 18.4136 25.5741 16.6386 26.3159 14.7376C26.3918 14.5094 26.5353 14.314 26.7246 14.1813C26.9138 14.0486 27.1384 13.9859 27.3641 14.0027H29.7719C30.4939 14.0027 30.6469 14.3894 30.4939 14.9412C29.6181 17.0425 28.5345 19.0373 27.2617 20.8911C27.002 21.3151 26.8985 21.5356 27.2617 22.0331C27.5002 22.4198 28.3447 23.1752 28.9115 23.8932C29.737 24.7752 30.4221 25.7951 30.9404 26.9122C31.1473 27.6314 30.8032 27.9989 30.116 27.9989Z" fill="#4D4D4D"/>
</svg>
