<svg width="40" height="40" viewBox="0 0 40 40" fill="none" xmlns="http://www.w3.org/2000/svg">
<circle cx="20" cy="20" r="19.5" stroke="#4D4D4D"/>
<path d="M17.8 23.4286L23.509 20L17.8 16.5714V23.4286ZM30.516 14.48C30.659 15.0171 30.758 15.7371 30.824 16.6514C30.901 17.5657 30.934 18.3543 30.934 19.04L31 20C31 22.5029 30.824 24.3429 30.516 25.52C30.241 26.5486 29.603 27.2114 28.613 27.4971C28.096 27.6457 27.15 27.7486 25.698 27.8171C24.268 27.8971 22.959 27.9314 21.749 27.9314L20 28C15.391 28 12.52 27.8171 11.387 27.4971C10.397 27.2114 9.759 26.5486 9.484 25.52C9.341 24.9829 9.242 24.2629 9.176 23.3486C9.099 22.4343 9.066 21.6457 9.066 20.96L9 20C9 17.4971 9.176 15.6571 9.484 14.48C9.759 13.4514 10.397 12.7886 11.387 12.5029C11.904 12.3543 12.85 12.2514 14.302 12.1829C15.732 12.1029 17.041 12.0686 18.251 12.0686L20 12C24.609 12 27.48 12.1829 28.613 12.5029C29.603 12.7886 30.241 13.4514 30.516 14.48Z" fill="#4D4D4D"/>
</svg>
