<svg width="25" height="25" viewBox="0 0 25 25" fill="none" xmlns="http://www.w3.org/2000/svg">
<path d="M24.9331 24.2188C22.8672 20.5003 19.5557 17.9614 15.719 17.0461C17.5421 16.2685 19.0493 14.8559 19.9831 13.0496C20.9168 11.2434 21.2192 9.15564 20.8386 7.14304C20.458 5.13044 19.4179 3.3179 17.8961 2.01508C16.3743 0.712255 14.4652 0 12.495 0C10.5248 0 8.61573 0.712255 7.09395 2.01508C5.57216 3.3179 4.53209 5.13044 4.15145 7.14304C3.77081 9.15564 4.07321 11.2434 5.00698 13.0496C5.94075 14.8559 7.44796 16.2685 9.27109 17.0461C5.43938 17.9575 2.12291 20.5003 0.0569842 24.2188C-0.0028191 24.3378 -0.0161384 24.4763 0.0198089 24.6053C0.0557562 24.7343 0.13819 24.8439 0.24989 24.9111C0.36159 24.9783 0.493918 24.998 0.619232 24.966C0.744546 24.9341 0.853154 24.853 0.92237 24.7396C3.36596 20.3376 7.69539 17.7089 12.495 17.7089C17.2947 17.7089 21.6241 20.3376 24.0677 24.7396C24.1115 24.8187 24.1746 24.8844 24.2506 24.9301C24.3265 24.9758 24.4127 24.9999 24.5004 25C24.5883 25.0003 24.6747 24.976 24.7505 24.9297C24.8652 24.8605 24.9488 24.7468 24.983 24.6136C25.0172 24.4803 24.9993 24.3383 24.9331 24.2188ZM4.99168 8.85532C4.99168 7.31026 5.43175 5.7999 6.25623 4.51523C7.0807 3.23057 8.25257 2.22929 9.62362 1.63802C10.9947 1.04676 12.5034 0.892054 13.9589 1.19348C15.4144 1.49491 16.7513 2.23892 17.8007 3.33144C18.8501 4.42396 19.5647 5.81591 19.8542 7.33128C20.1437 8.84665 19.9951 10.4174 19.4272 11.8448C18.8593 13.2723 17.8976 14.4923 16.6637 15.3507C15.4297 16.2091 13.9791 16.6673 12.495 16.6673C10.5057 16.6648 8.59857 15.841 7.19192 14.3765C5.78527 12.912 4.994 10.9264 4.99168 8.85532Z" fill="black"/>
</svg>
