<svg width="26" height="27" viewBox="0 0 26 27" fill="none" xmlns="http://www.w3.org/2000/svg">
<path d="M5.48482 27C4.67995 27 3.9934 26.7306 3.42519 26.1919C2.85817 25.6531 2.57466 25.0008 2.57466 24.2349V3.03044H0.772705V1.31833H7.98053V0H18.7923V1.31833H26.0001V3.03044H24.1981V24.2349C24.1981 25.0225 23.9206 25.68 23.3656 26.2073C22.8094 26.7358 22.1169 27 21.288 27H5.48482ZM22.3962 3.03044H4.37662V24.2349C4.37662 24.542 4.48053 24.7942 4.68836 24.9917C4.89618 25.1892 5.16167 25.2879 5.48482 25.2879H21.288C21.5643 25.2879 21.8184 25.1783 22.0502 24.9592C22.2809 24.7389 22.3962 24.4975 22.3962 24.2349V3.03044ZM9.43651 21.8637H11.2385V6.45466H9.43651V21.8637ZM15.5343 21.8637H17.3363V6.45466H15.5343V21.8637Z" fill="black"/>
</svg>
