<svg width="30" height="29" viewBox="0 0 30 29" fill="none" xmlns="http://www.w3.org/2000/svg">
<path d="M13.9914 2.41608H3.88699C3.12131 2.41608 2.38699 2.71557 1.84558 3.24867C1.30416 3.78177 1 4.50481 1 5.25873V25.1573C1 25.9112 1.30416 26.6343 1.84558 27.1674C2.38699 27.7005 3.12131 28 3.88699 28H24.0959C24.8616 28 25.5959 27.7005 26.1373 27.1674C26.6787 26.6343 26.9829 25.9112 26.9829 25.1573V15.208" stroke="black" stroke-width="1.5" stroke-linecap="round" stroke-linejoin="round"/>
<path d="M23.1938 1.8831C23.768 1.31766 24.5469 1 25.359 1C26.1711 1 26.95 1.31766 27.5243 1.8831C28.0985 2.44854 28.4211 3.21544 28.4211 4.01509C28.4211 4.81474 28.0985 5.58164 27.5243 6.14708L13.9915 19.472L8.21753 20.8934L9.66102 15.2081L23.1938 1.8831Z" stroke="black" stroke-width="1.5" stroke-linecap="round" stroke-linejoin="round"/>
</svg>
