<svg width="32" height="32" viewBox="0 0 32 32" fill="none" xmlns="http://www.w3.org/2000/svg">
<path d="M32.0002 27.524C31.9829 28.1406 31.842 28.7475 31.5859 29.3086C31.3299 29.8696 30.9639 30.3735 30.5096 30.7901C30.0554 31.2067 29.5222 31.5277 28.9417 31.7339C28.3612 31.9401 27.7452 32.0273 27.1304 31.9905C23.2898 32.0119 19.4493 31.9905 15.6087 31.9905C15.3722 31.9905 15.1453 31.8964 14.978 31.7288C14.8108 31.5613 14.7168 31.3341 14.7168 31.0972C14.7168 30.8603 14.8108 30.633 14.978 30.4655C15.1453 30.298 15.3722 30.2039 15.6087 30.2039C19.5331 30.2039 23.4575 30.261 27.3819 30.2039C29.3565 30.1753 30.2163 28.6888 30.2163 26.9201V4.6537C30.2301 4.09139 30.0722 3.53828 29.7636 3.06831C29.455 2.59835 29.0106 2.23394 28.4896 2.02382C27.8737 1.85549 27.2329 1.79802 26.597 1.85409H15.6087C15.3722 1.85409 15.1453 1.75998 14.978 1.59245C14.8108 1.42493 14.7168 1.19771 14.7168 0.960794C14.7168 0.723876 14.8108 0.496662 14.978 0.329136C15.1453 0.161609 15.3722 0.0674938 15.6087 0.0674938C19.5759 0.0674938 23.5734 -0.0843672 27.5371 0.0674938C28.144 0.0828686 28.7419 0.218994 29.2959 0.467949C29.8498 0.716904 30.3488 1.07372 30.7638 1.51762C31.1788 1.96153 31.5015 2.48367 31.7132 3.05366C31.9248 3.62364 32.0211 4.23009 31.9966 4.83772L32.0002 27.524Z" fill="black"/>
<path d="M0.261302 15.4018C0.110592 15.5482 0.0223613 15.7473 0.0151362 15.9575C0.0151362 15.9843 0.0151361 16.0075 0.00443326 16.0343C-0.00626962 16.0611 0.00443334 16.0825 0.0151362 16.1075C0.0222739 16.3182 0.110482 16.5179 0.261302 16.6649L6.80611 23.22C6.97433 23.3827 7.19963 23.4727 7.43348 23.4707C7.66734 23.4687 7.89104 23.3747 8.0564 23.2091C8.22177 23.0435 8.31557 22.8194 8.3176 22.5852C8.31964 22.351 8.22974 22.1253 8.06727 21.9569L3.04583 16.9258H22.2076C22.4441 16.9258 22.671 16.8317 22.8382 16.6642C23.0055 16.4966 23.0995 16.2694 23.0995 16.0325C23.0995 15.7956 23.0055 15.5684 22.8382 15.4008C22.671 15.2333 22.4441 15.1392 22.2076 15.1392H3.04583L8.06727 10.1081C8.22974 9.93965 8.31964 9.714 8.3176 9.47978C8.31557 9.24556 8.22177 9.0215 8.0564 8.85588C7.89104 8.69025 7.66734 8.59631 7.43348 8.59427C7.19963 8.59224 6.97433 8.68228 6.80611 8.845L0.261302 15.4018Z" fill="black"/>
</svg>
