<svg width="34" height="34" viewBox="0 0 34 34" fill="none" xmlns="http://www.w3.org/2000/svg">
<path d="M7.4 8.38462H13.8M7.4 17H26.6M7.4 21.9231H26.6M7.4 26.8462H13.8M4.2 33H29.8C30.6487 33 31.4626 32.7407 32.0627 32.279C32.6629 31.8174 33 31.1913 33 30.5385V3.46154C33 2.8087 32.6629 2.1826 32.0627 1.72097C31.4626 1.25934 30.6487 1 29.8 1H4.2C3.35131 1 2.53737 1.25934 1.93726 1.72097C1.33714 2.1826 1 2.8087 1 3.46154V30.5385C1 31.1913 1.33714 31.8174 1.93726 32.279C2.53737 32.7407 3.35131 33 4.2 33Z" stroke="black" stroke-width="1.3" stroke-linecap="round" stroke-linejoin="round"/>
</svg>
