<svg width="70" height="70" viewBox="0 0 70 70" fill="none" xmlns="http://www.w3.org/2000/svg">
<circle cx="35" cy="35" r="35" fill="black" fill-opacity="0.3"/>
<path d="M50.6089 48.7143C48.2158 44.4101 44.459 41.39 40.0936 40.1091C42.216 38.9862 43.9131 37.1521 44.9114 34.9024C45.9097 32.6527 46.1509 30.1187 45.5963 27.7088C45.0416 25.299 43.7233 23.1538 41.8539 21.6192C39.9846 20.0846 37.6731 19.25 35.2923 19.25C32.9115 19.25 30.6001 20.0846 28.7307 21.6192C26.8614 23.1538 25.5431 25.299 24.9884 27.7088C24.4337 30.1187 24.6749 32.6527 25.6732 34.9024C26.6715 37.1521 28.3687 38.9862 30.491 40.1091C26.1257 41.3884 22.3688 44.4086 19.9757 48.7143C19.91 48.8219 19.8659 48.9422 19.846 49.068C19.8261 49.1938 19.8309 49.3225 19.8601 49.4463C19.8892 49.5701 19.9421 49.6865 20.0156 49.7885C20.0891 49.8905 20.1816 49.976 20.2877 50.0398C20.3937 50.1036 20.5111 50.1444 20.6327 50.1598C20.7543 50.1751 20.8776 50.1648 20.9952 50.1292C21.1128 50.0937 21.2224 50.0338 21.3172 49.9531C21.412 49.8724 21.4901 49.7725 21.5469 49.6595C24.4546 44.4306 29.5919 41.3096 35.2923 41.3096C40.9927 41.3096 46.13 44.4306 49.0377 49.6595C49.0945 49.7725 49.1727 49.8724 49.2675 49.9531C49.3623 50.0338 49.4718 50.0937 49.5894 50.1292C49.7071 50.1648 49.8304 50.1751 49.952 50.1598C50.0736 50.1444 50.1909 50.1036 50.297 50.0398C50.403 49.976 50.4956 49.8905 50.569 49.7885C50.6425 49.6865 50.6954 49.5701 50.7246 49.4463C50.7537 49.3225 50.7585 49.1938 50.7386 49.068C50.7187 48.9422 50.6746 48.8219 50.6089 48.7143ZM26.5132 30.2814C26.5132 28.4742 27.0281 26.7075 27.9927 25.2048C28.9574 23.7022 30.3285 22.531 31.9327 21.8394C33.5369 21.1478 35.3021 20.9668 37.005 21.3194C38.708 21.672 40.2723 22.5422 41.5001 23.8202C42.7279 25.0981 43.564 26.7262 43.9028 28.4988C44.2415 30.2713 44.0677 32.1086 43.4032 33.7783C42.7387 35.448 41.6135 36.8751 40.1698 37.8791C38.726 38.8832 37.0287 39.4191 35.2923 39.4191C32.9648 39.4162 30.7334 38.4525 29.0876 36.7395C27.4418 35.0265 26.516 32.704 26.5132 30.2814Z" fill="black"/>
</svg>
