<?xml version="1.0" encoding="utf-8"?>
<!-- Generator: Adobe Illustrator 26.4.1, SVG Export Plug-In . SVG Version: 6.00 Build 0)  -->
<svg version="1.1" id="Слой_2" xmlns="http://www.w3.org/2000/svg" xmlns:xlink="http://www.w3.org/1999/xlink" x="0px" y="0px"
	 viewBox="0 0 162.96 127.49" style="enable-background:new 0 0 162.96 127.49;" xml:space="preserve">
<style type="text/css">
	.st0{fill:none;stroke:#FFFFFF;stroke-linecap:round;stroke-linejoin:round;stroke-miterlimit:10;}
</style>
<path class="st0" d="M104.71,93.55c2.5,0.04,6.07-0.09,10.24-0.92c6.86-1.36,11.66-3.87,16.82-6.57c6.21-3.25,10.69-6.48,12.84-8.1
	c7.06-5.32,10.71-7.81,12.99-11.92c1-1.8,4.07-7.54,2.75-14.52c-0.88-4.67-3.35-7.85-5.2-10.24c-2.66-3.44-5.56-5.63-8.41-7.8
	c-1.08-0.82-3.73-2.76-7.14-4.94c-0.27-0.17-0.5-0.32-0.65-0.41c-0.11-1.77-0.46-4.41-1.68-7.34c-0.86-2.06-1.8-3.44-2.9-5.04
	c-1.5-2.18-3.42-4.96-6.73-7.64c-1.73-1.4-4.36-3.54-8.41-4.74c-4.54-1.35-8.33-0.77-10.24-0.46c-7.5,1.22-12.45,5.44-14.98,7.64
	c-6.96,6.07-9.71,13.13-11.16,16.97c-0.84,2.24-3.7,10.33-2.75,20.64c0.08,0.87,1.24,12.8,4.59,13.15c0.15,0.02,0.65,0.04,1.76-0.76
	c2.41-1.75,3.6-4.45,4.43-7.8c1.25-4.99,2.09-8.36,0.84-12.69c-0.47-1.64-2.42-8.39-7.8-9.94c-3.32-0.95-6.35,0.54-9.94,2.29
	c-1.66,0.81-4.02,2.17-9.02,6.73c-6.3,5.74-5.89,6.62-9.02,9.02c-4.71,3.62-9.44,4.53-16.05,5.81c-10.05,1.94-10.95-0.12-18.96,1.83
	c-5.7,1.4-11.93,2.92-16.05,8.56c-4.54,6.21-3.58,13.41-3.36,14.83c1.33,8.65,7.78,13.3,9.48,14.52c3.91,2.82,7.48,3.56,12.98,4.71
	c9.1,1.89,16.43,1.13,20.8,0.64c2.89-0.32,6.82-1.29,14.68-3.21c4.89-1.2,7.75-2.03,10.23-4.6c0.67-0.7,3.75-4.06,2.77-6.41
	c-0.94-2.24-4.98-2.15-9.48-2.6c-4.38-0.44-16.91-1.7-24.92-8.56c-4.34-3.72-6.23-8.12-8.25-12.84c-2.1-4.89-4.39-10.21-3.06-16.66
	c0.95-4.6,3.35-7.88,4.74-9.78c2.36-3.23,4.69-5.07,7.8-7.49c4.7-3.66,8.02-6.25,13.15-7.49c2.5-0.61,8.16-1.98,11.77,1.07
	c0.95,0.8,1.53,1.72,2.6,4.28c2.66,6.4,3.68,11.91,4.59,16.51c1.72,8.7,1.68,7.05,2.29,10.85c2.42,14.91,0.63,24.92,3.82,25.83
	c0.35,0.1,0.99,0.15,1.99-0.46c8.86-5.44,15.4-11.16,19.87-15.59c7.41-7.36,12.39-12.29,16.13-20.56
	c4.33-9.59,5.63-20.61,7.87-20.41c0.3,0.03,0.49,0.24,0.69,0.46c3.62,4.09,4.84,9.86,4.97,10.47c1.03,5.05,1.28,8.93,1.3,9.17
	c0.35,5.53,0.61,9.66-0.38,14.52c-1.42,7.01-4.66,11.71-7.8,16.28c-1.33,1.93-4.96,6.99-11.01,12.23c0,0-5.75,4.98-21.71,12.38
	c-1.32,0.61-2.29,0.98-3.52,0.92c-1.83-0.09-2.53-1.05-3.67-0.61c-1.14,0.44-1,1.63-2.29,2.29c-1.09,0.56-2.25,0.26-2.75,0.15
	c-3.49-0.75-9.93,0.03-12.23,0.61c-6.1,1.54-9.41,8.32-11.31,12.23c-0.87,1.79-1.59,4.76-3.02,10.71c-0.1,0.41-0.35,1.5-0.12,1.6
	c0.35,0.15,1.35-1.98,3.13-4.43c1.97-2.71,3.28-4.52,5.5-5.58c1.35-0.64,1.51-0.29,6.27-1.15c2.88-0.52,4.32-0.78,5.35-1.15
	c1.82-0.65,4.92-2.48,7.41-8.79"/>
<path class="st0" d="M86.98,97.32c-0.46,0.34-1.27,1.04-1.84,2.2c-0.21,0.44-0.98,2.02-0.51,3.5c0.64,2.03,3.34,2.78,5.79,3.45
	c2.25,0.62,2.64,0.33,5.35,0.84c3.87,0.74,4.08,1.53,6.96,2.06c1.2,0.22,4.85,0.86,8.87-0.61c1.37-0.5,5.61-2.06,6.5-5.5
	c0.29-1.13,0.33-2.9-0.61-3.59c-0.77-0.57-1.83-0.14-3.36,0.23c-2.04,0.5-4.18,0.42-6.27,0.69c-5.37,0.69-10.13-0.7-12.38-1.45
	c-1.55-0.51-3.61-1.35-5.91-2.74"/>
<rect x="18.34" y="7.34" class="st0" width="125.04" height="113.73"/>
</svg>
