<?xml version="1.0" encoding="UTF-8"?>
<svg id="_Слой_2" data-name="Слой 2" xmlns="http://www.w3.org/2000/svg" viewBox="0 0 160.39 122.85">
  <defs>
    <style>
      .cls-1 {
        fill: none;
        stroke: #000;
        stroke-linecap: round;
        stroke-linejoin: round;
      }
    </style>
  </defs>
  <path class="cls-1" d="M103.92,91.54c2.5,.04,6.07-.09,10.24-.92,6.86-1.36,11.66-3.87,16.82-6.57,6.21-3.25,10.69-6.48,12.84-8.1,7.06-5.32,10.71-7.81,12.99-11.92,1-1.8,4.07-7.54,2.75-14.52-.88-4.67-3.35-7.85-5.2-10.24-2.66-3.44-5.56-5.63-8.41-7.8-1.08-.82-3.73-2.76-7.14-4.94-.27-.17-.5-.32-.65-.41-.11-1.77-.46-4.41-1.68-7.34-.86-2.06-1.8-3.44-2.9-5.04-1.5-2.18-3.42-4.96-6.73-7.64-1.73-1.4-4.36-3.54-8.41-4.74-4.54-1.35-8.33-.77-10.24-.46-7.5,1.22-12.45,5.44-14.98,7.64-6.96,6.07-9.71,13.13-11.16,16.97-.84,2.24-3.7,10.33-2.75,20.64,.08,.87,1.24,12.8,4.59,13.15,.15,.02,.65,.04,1.76-.76,2.41-1.75,3.6-4.45,4.43-7.8,1.25-4.99,2.09-8.36,.84-12.69-.47-1.64-2.42-8.39-7.8-9.94-3.32-.95-6.35,.54-9.94,2.29-1.66,.81-4.02,2.17-9.02,6.73-6.3,5.74-5.89,6.62-9.02,9.02-4.71,3.62-9.44,4.53-16.05,5.81-10.05,1.94-10.95-.12-18.96,1.83-5.7,1.4-11.93,2.92-16.05,8.56-4.54,6.21-3.58,13.41-3.36,14.83,1.33,8.65,7.78,13.3,9.48,14.52,3.91,2.82,7.48,3.56,12.98,4.71,9.1,1.89,16.43,1.13,20.8,.64,2.89-.32,6.82-1.29,14.68-3.21,4.89-1.2,7.75-2.03,10.23-4.6,.67-.7,3.75-4.06,2.77-6.41-.94-2.24-4.98-2.15-9.48-2.6-4.38-.44-16.91-1.7-24.92-8.56-4.34-3.72-6.23-8.12-8.25-12.84-2.1-4.89-4.39-10.21-3.06-16.66,.95-4.6,3.35-7.88,4.74-9.78,2.36-3.23,4.69-5.07,7.8-7.49,4.7-3.66,8.02-6.25,13.15-7.49,2.5-.61,8.16-1.98,11.77,1.07,.95,.8,1.53,1.72,2.6,4.28,2.66,6.4,3.68,11.91,4.59,16.51,1.72,8.7,1.68,7.05,2.29,10.85,2.42,14.91,.63,24.92,3.82,25.83,.35,.1,.99,.15,1.99-.46,8.86-5.44,15.4-11.16,19.87-15.59,7.41-7.36,12.39-12.29,16.13-20.56,4.33-9.59,5.63-20.61,7.87-20.41,.3,.03,.49,.24,.69,.46,3.62,4.09,4.84,9.86,4.97,10.47,1.03,5.05,1.28,8.93,1.3,9.17,.35,5.53,.61,9.66-.38,14.52-1.42,7.01-4.66,11.71-7.8,16.28-1.33,1.93-4.96,6.99-11.01,12.23,0,0-5.75,4.98-21.71,12.38-1.32,.61-2.29,.98-3.52,.92-1.83-.09-2.53-1.05-3.67-.61-1.14,.44-1,1.63-2.29,2.29-1.09,.56-2.25,.26-2.75,.15-3.49-.75-9.93,.03-12.23,.61-6.1,1.54-9.41,8.32-11.31,12.23-.87,1.79-1.59,4.76-3.02,10.71-.1,.41-.35,1.5-.12,1.6,.35,.15,1.35-1.98,3.13-4.43,1.97-2.71,3.28-4.52,5.5-5.58,1.35-.64,1.51-.29,6.27-1.15,2.88-.52,4.32-.78,5.35-1.15,1.82-.65,4.92-2.48,7.41-8.79"/>
  <path class="cls-1" d="M86.19,95.3c-.46,.34-1.27,1.04-1.84,2.2-.21,.44-.98,2.02-.51,3.5,.64,2.03,3.34,2.78,5.79,3.45,2.25,.62,2.64,.33,5.35,.84,3.87,.74,4.08,1.53,6.96,2.06,1.2,.22,4.85,.86,8.87-.61,1.37-.5,5.61-2.06,6.5-5.5,.29-1.13,.33-2.9-.61-3.59-.77-.57-1.83-.14-3.36,.23-2.04,.5-4.18,.42-6.27,.69-5.37,.69-10.13-.7-12.38-1.45-1.55-.51-3.61-1.35-5.91-2.74"/>
  <rect class="cls-1" x="17.55" y="5.33" width="125.04" height="113.73"/>
</svg>